<svg fill="#000000" viewBox="0 0 600 111" x="0px" xml:space="preserve" xmlns:xlink="http://www.w3.org/1999/xlink" xmlns="http://www.w3.org/2000/svg" y="0px">
  <g>
    <path d="M508.2,100l-42.2-59.6v49.9c0,1.9,0.1,3.1,0.4,3.6c0.5,1.1,1.9,1.9,4.1,2.3c1.2,0.1,2.8,0.3,4.8,0.4v2.4
		c-5.2-0.4-9.2-0.5-11.8-0.5c-2.8,0-6.7,0.1-11.6,0.5v-2.4c3.6-0.3,6-0.7,7-1.2s1.7-1.5,1.9-2.7c0.1-0.4,0.1-1.2,0.1-2.4V34.9
		c-1.2-1.9-4.1-2.8-9-2.9v-2.3c3.5,0.3,6.3,0.4,8.6,0.4c2.3,0,5.2-0.1,8.6-0.4l36.3,51.5V38.4c0-1.9-0.1-3.1-0.4-3.6
		c-0.4-1.1-1.7-1.9-4-2.3c-1.1-0.1-2.5-0.3-4.7-0.5v-2.3c4.9,0.4,8.8,0.5,11.4,0.5c2.4,0,6.4-0.1,12-0.5v2.4
		c-3.7,0.3-6.3,0.7-7.3,1.2c-1.1,0.5-1.7,1.5-1.9,2.7c0,0.4-0.1,1.2-0.1,2.4V100H508.2z M399.6,74.8h23.3L411.7,44L399.6,74.8z
		 M424.2,78.4h-25.9L394.1,90c-0.5,1.6-0.8,2.8-0.9,3.6c0,1.3,0.7,2.1,2.3,2.5c0.8,0.3,2.5,0.4,5.2,0.4v2.4
		c-4.4-0.4-8.1-0.5-10.9-0.5c-2.8,0-6.4,0.1-10.8,0.5v-2.4c3.5-0.3,5.7-0.7,6.8-1.3c0.8-0.5,1.9-2.1,2.9-5.1l24.6-63.8l24.5,64.2
		c0.7,1.7,1.2,2.9,1.5,3.5c0.9,1.3,3.7,2.3,8.6,2.5v2.4c-6.1-0.4-10.4-0.7-12.9-0.7c-2.5,0-6.9,0.3-12.9,0.7v-2.4
		c2.4-0.3,4-0.5,4.9-0.8c1.5-0.4,2.1-1.2,2.1-2.5c0-0.5-0.1-1.3-0.5-2.4L424.2,78.4z M330.7,95.7l-22.1-56.3l-2.7,50.7
		c-0.1,2.8,0.5,4.4,2,5.1c1.1,0.5,3.5,0.9,7.3,1.2v2.4c-4.8-0.4-8.6-0.5-11.7-0.5c-2.9,0-6.8,0.1-11.6,0.5v-2.4
		c3.6-0.3,5.9-0.7,6.9-1.2c1.2-0.7,2-2.4,2.1-5.1l2.9-51.9v-1.1c0-2.3-1.1-3.7-3.3-4.4c-0.7-0.3-2.7-0.5-5.7-0.8v-2.3
		c4,0.4,7.2,0.5,9.3,0.5c2.3,0,5.3-0.1,9.3-0.5l19.7,50.9l20.4-50.9c4,0.4,7.2,0.5,9.3,0.5s5.2-0.1,9.4-0.5v2.4
		c-3.1,0.3-5.2,0.5-6.3,0.9c-2,0.7-3.1,2-3.1,4v1.5l2.4,51.9c0.1,2.8,0.9,4.4,2.1,5.1c1.3,0.7,3.7,1.1,7.2,1.2V99
		c-6.5-0.4-11-0.7-13.8-0.7c-3.1,0-7.4,0.3-13.4,0.7v-2.4c3.7-0.3,6-0.7,7.2-1.2c1.3-0.7,2-2.4,2-5.1l-2-50.7L332.1,96h-1.5V95.7z
		 M252.7,64.7v25.5c0,1.9,0.1,3.1,0.4,3.6c0.5,1.1,1.9,1.9,4.3,2.3c1.1,0.1,2.8,0.3,4.8,0.4v2.4c-6.3-0.4-10.6-0.7-13.6-0.7
		c-2.8,0-7.3,0.3-13.6,0.7v-2.4c3.6-0.3,5.9-0.7,7-1.2c1.1-0.5,1.7-1.5,1.9-2.7c0-0.4,0.1-1.2,0.1-2.4V38.8c0-1.9-0.1-3.1-0.4-3.6
		c-0.4-1.1-1.7-1.9-4-2.3c-1.1-0.1-2.5-0.3-4.7-0.4v-2.3h48l1.6,15h-2.4c-1.1-3.3-2-5.9-3.1-7.6c-0.9-1.6-2-2.5-3.3-3.1
		c-1.2-0.5-2.8-0.8-5.2-0.8h-18v27.4h18.2c1.9,0,3.2-0.3,3.9-0.9c1.1-1.1,1.7-3.6,1.9-7.4h2.3v20.4h-2.3c0-2.1-0.4-4-0.9-5.6
		c-0.7-1.7-2.1-2.7-4.7-2.8h-18.4V64.7z M218,38.4v39.2c0,6-1.2,10.6-3.7,13.7c-4.4,5.6-11.3,8.4-21,8.4c-8.2,0-14.6-2.1-19.3-6.5
		c-2.5-2.4-4.3-5.2-4.9-8.2c-0.4-1.7-0.5-4-0.5-6.7V38.4c0-1.9-0.1-3.1-0.4-3.6c-0.4-1.1-1.7-1.9-4-2.3c-0.9-0.1-2.5-0.3-4.7-0.5
		v-2.3c5.9,0.4,10.4,0.7,13.6,0.7c3.1,0,7.7-0.3,13.7-0.7v2.4c-3.7,0.3-6.3,0.7-7.4,1.2c-1.2,0.5-1.9,1.5-1.9,2.7
		c-0.1,0.4-0.1,1.2-0.1,2.4v40c0,4.1,0.4,7,1.2,8.8c2.5,5.2,7.8,7.7,16,7.7c12.2,0,18.4-5.5,18.4-16.4V38.4c0-1.9-0.1-3.1-0.4-3.6
		c-0.4-1.1-1.9-1.9-4.1-2.3c-1.1-0.1-2.5-0.3-4.7-0.5v-2.3c5.1,0.4,8.9,0.5,11.6,0.5c2.8,0,6.7-0.1,11.7-0.5v2.4
		c-3.7,0.3-6,0.7-7.2,1.2c-1.1,0.5-1.7,1.5-1.9,2.7C218,36.4,218,37.2,218,38.4 M107.7,74.8H131L119.8,44L107.7,74.8z M132.3,78.4
		h-25.9L102.3,90c-0.5,1.6-0.8,2.8-0.9,3.6c0,1.3,0.7,2.1,2.3,2.5c0.8,0.3,2.5,0.4,5.2,0.4v2.4c-4.4-0.4-8.1-0.5-10.9-0.5
		c-2.8,0-6.4,0.1-10.8,0.5v-2.4c3.5-0.3,5.7-0.7,6.8-1.3c0.8-0.5,1.7-2.1,2.9-5.1l24.6-63.8l24.5,64.2c0.7,1.7,1.2,2.9,1.5,3.5
		c0.9,1.3,3.7,2.3,8.6,2.5v2.4c-6.1-0.4-10.4-0.7-12.9-0.7s-6.9,0.3-12.9,0.7v-2.4c2.4-0.3,4-0.5,4.9-0.8c1.5-0.4,2.1-1.2,2.1-2.5
		c0-0.5-0.1-1.3-0.5-2.4L132.3,78.4z M21.4,49.6l31.9-34.8c1.1-1.2,1.7-2.3,1.7-3.1c0-1.3-1.2-2.1-3.6-2.4c-1.2-0.1-2.8-0.3-4.9-0.4
		V6.2c5.1,0.4,9.7,0.7,13.8,0.7s8.8-0.3,13.8-0.7v2.7c-3.3,0.1-6,0.5-8,1.1c-2.7,0.8-5.5,2.8-8.4,5.9l-26.2,29l32.5,43.4
		c2.7,3.6,5.5,5.9,8.2,6.9c2,0.7,4.5,1.1,7.6,1.3V99c-6.7-0.7-12.2-1.1-17-1.1C58.3,98,52.5,98.4,46,99v-2.7c2.5-0.3,4.5-0.5,6-0.8
		c2.5-0.4,3.7-1.3,3.7-2.9c0-0.8-0.8-2.5-2.5-4.9L26.1,50.1l-4.8,5.2v32.1c0,2.7,0.3,4.4,0.8,5.3c0.8,1.5,2.8,2.5,5.9,3.1
		c1.2,0.1,2.7,0.4,4.8,0.5v2.7c-6.1-0.7-11.3-1.1-15.3-1.1c-3.9,0-9.3,0.4-16.2,1.1v-2.7c3.7-0.3,6.4-0.8,8-1.5
		c1.9-0.8,2.9-2.1,3.2-4c0.1-0.7,0.1-1.9,0.1-3.5V17.9c0-2.7-0.3-4.4-0.8-5.3c-1.3-2-4.8-3.2-10.6-3.6V6.3C8,7,13.3,7.4,17.2,7.4
		s9-0.4,15.4-1.1V9c-3.7,0.3-6.4,0.8-8,1.5c-1.9,0.8-2.9,2.1-3.2,4c-0.1,0.7-0.1,1.7-0.1,3.5v31.7H21.4z M583.2,100l-42.2-59.6v49.9
		c0,1.9,0.1,3.1,0.3,3.6c0.5,1.1,1.9,1.9,4.1,2.3c1.2,0.1,2.8,0.3,4.8,0.4v2.4c-5.2-0.4-9-0.5-11.8-0.5s-6.7,0.1-11.6,0.5v-2.4
		c3.6-0.3,6-0.7,7-1.2c1.1-0.5,1.7-1.5,1.9-2.7c0.1-0.4,0.1-1.2,0.1-2.4V34.9c-1.2-1.9-4.1-2.8-9-2.9v-2.3c3.5,0.3,6.3,0.4,8.6,0.4
		c2.3,0,5.2-0.1,8.6-0.4l36.3,51.5V38.4c0-1.9-0.1-3.1-0.4-3.6c-0.4-1.1-1.7-1.9-4-2.3c-0.9-0.1-2.5-0.3-4.7-0.5v-2.3
		c4.9,0.4,8.8,0.5,11.4,0.5c2.4,0,6.4-0.1,12-0.5v2.4c-3.7,0.3-6.3,0.7-7.3,1.2c-1.2,0.5-1.7,1.5-1.9,2.7c0,0.4,0,1.2,0,2.4V100
		H583.2z" />
  </g>
</svg>
