<svg fill="none" height="862" viewBox="0 0 1440 862" width="1440" xmlns="http://www.w3.org/2000/svg">
  <mask id="mask0_139_143" maskUnits="userSpaceOnUse" style="mask-type:alpha" x="47" y="-740" width="1557" height="1714">
    <g opacity="0.2">
      <path
        d="M244.982 -739.688C281.161 -663.059 303.216 -580.531 310.089 -496.069C325.474 -295.989 241.447 -202.713 289.921 -146.244C364.831 -58.9934 586.414 -257.52 805.077 -164.082C965.468 -95.5689 1045.56 96.4394 1064.08 140.904C1136.42 314.27 1089.69 420.126 1181.26 486.015C1248.19 534.285 1302 498.442 1422.95 549.967C1507.15 585.84 1565.86 639.302 1602.67 679.391"
        stroke="#002D74" stroke-miterlimit="10" />
      <path
        d="M237.397 -728.398C273.573 -651.753 295.632 -569.213 302.515 -484.739C317.885 -284.634 233.873 -191.383 282.321 -134.929C357.257 -47.6636 578.84 -246.19 797.478 -152.767C957.879 -84.214 1037.97 107.794 1056.51 152.234C1128.85 325.6 1082.09 431.442 1173.68 497.344C1240.61 545.615 1294.41 509.757 1415.38 561.297C1499.61 597.184 1558.29 650.631 1595.09 690.72"
        stroke="#002D74" stroke-miterlimit="10" />
      <path
        d="M229.812 -717.109C265.999 -640.467 288.059 -557.925 294.93 -473.45C310.3 -273.344 226.288 -180.094 274.762 -123.624C349.596 -36.417 571.28 -234.886 789.918 -141.463C950.294 -72.924 1030.39 119.084 1048.93 163.523C1121.25 336.915 1074.53 442.746 1166.1 508.634C1233.03 556.905 1286.86 521.036 1407.81 572.562C1492.03 608.449 1550.71 661.896 1587.52 701.985"
        stroke="#002D74" stroke-miterlimit="10" />
      <path
        d="M222.277 -705.79C258.44 -629.139 280.486 -546.595 287.354 -462.12C302.725 -262.015 218.712 -168.764 267.161 -112.31C342.097 -25.0447 563.68 -223.571 782.317 -130.148C942.719 -61.5949 1022.81 130.413 1041.35 174.853C1113.67 348.244 1066.93 454.061 1158.52 519.963C1225.45 568.234 1279.26 532.351 1400.23 583.891C1484.46 619.778 1543.14 673.225 1579.95 713.314"
        stroke="#002D74" stroke-miterlimit="10" />
      <path
        d="M214.666 -694.516C250.842 -617.871 272.901 -535.33 279.783 -450.856C295.179 -250.737 211.127 -157.475 259.615 -101.031C334.526 -13.7807 556.134 -212.293 774.771 -118.87C935.173 -50.3166 1015.24 141.677 1033.8 186.131C1106.1 359.508 1059.39 465.339 1150.95 531.227C1217.88 579.498 1271.71 543.629 1392.66 595.155C1476.89 631.042 1535.55 684.514 1572.38 724.578"
        stroke="#002D74" stroke-miterlimit="10" />
      <path
        d="M207.107 -683.211C243.273 -606.562 265.332 -524.024 272.224 -439.552C287.595 -239.447 203.568 -146.17 252.031 -89.7408C326.891 -2.51921 548.55 -201.002 767.27 -107.666C927.646 -39.1273 1007.74 152.881 1026.28 197.32C1098.6 370.712 1051.86 476.528 1143.45 542.431C1210.38 590.701 1264.19 554.818 1385.16 606.358C1469.39 642.245 1528.05 695.718 1564.9 735.796"
        stroke="#002D74" stroke-miterlimit="10" />
      <path
        d="M199.556 -671.868C235.718 -595.215 257.75 -512.666 264.594 -428.188C279.989 -228.068 195.937 -134.806 244.426 -78.3622C319.322 8.91352 540.93 -189.598 759.567 -96.1754C919.983 -27.6476 1000.05 164.346 1018.61 208.8C1090.91 382.177 1044.2 488.008 1135.76 553.896C1202.69 602.167 1256.52 566.298 1377.47 617.824C1461.68 653.736 1520.36 707.183 1557.19 747.247"
        stroke="#002D74" stroke-miterlimit="10" />
      <path
        d="M192.005 -660.696C228.192 -584.055 250.252 -501.513 257.123 -417.037C272.508 -216.957 188.481 -123.681 236.929 -67.2263C311.865 20.0386 533.448 -178.488 752.111 -85.0503C912.501 -16.537 992.595 175.471 1011.12 219.936C1083.45 393.302 1036.71 499.119 1128.29 565.047C1195.22 613.317 1249.05 577.448 1369.99 628.999C1454.19 664.872 1512.87 718.319 1549.7 758.423"
        stroke="#002D74" stroke-miterlimit="10" />
      <path
        d="M184.363 -649.308C220.549 -572.66 242.616 -490.115 249.505 -405.635C264.89 -205.555 180.838 -112.293 229.312 -55.8238C304.172 31.3978 525.831 -167.085 744.511 -73.7381C904.927 -5.21031 984.996 186.784 1003.54 231.262C1075.85 404.614 1029.13 510.471 1120.69 576.359C1187.62 624.629 1241.44 588.786 1362.39 640.311C1446.61 676.199 1505.29 729.646 1542.1 769.735"
        stroke="#002D74" stroke-miterlimit="10" />
      <path
        d="M176.853 -637.975C213 -561.301 235.022 -478.735 241.862 -394.244C257.232 -194.139 173.22 -100.888 221.694 -44.4185C296.604 42.832 518.187 -155.694 736.85 -62.2569C897.241 6.2564 977.334 198.265 995.858 242.729C1068.19 416.096 1021.44 521.937 1113.03 587.84C1179.96 636.11 1233.78 600.267 1354.73 651.793C1438.93 687.665 1497.61 741.113 1534.44 781.216"
        stroke="#002D74" stroke-miterlimit="10" />
      <path
        d="M169.271 -626.749C205.438 -550.1 227.496 -467.561 234.389 -383.09C249.759 -182.985 165.747 -89.7336 214.195 -33.2787C289.106 53.9718 510.714 -144.54 729.352 -51.1171C889.753 17.436 969.821 209.43 988.385 253.883C1060.69 427.235 1013.97 533.092 1105.56 598.994C1172.46 647.25 1226.28 611.407 1347.25 662.947C1431.48 698.834 1490.16 752.281 1526.97 792.37"
        stroke="#002D74" stroke-miterlimit="10" />
      <path
        d="M161.656 -615.411C197.832 -538.766 219.891 -456.225 226.773 -371.752C242.144 -171.647 158.131 -78.3957 206.605 -21.9263C281.516 65.3241 503.098 -133.202 721.761 -39.7648C882.137 28.7738 962.231 220.782 980.769 265.221C1053.09 438.613 1006.35 544.43 1097.94 610.332C1164.87 658.602 1218.7 622.734 1339.65 674.259C1423.85 710.132 1482.53 763.579 1519.37 803.683"
        stroke="#002D74" stroke-miterlimit="10" />
      <path
        d="M154.147 -604.077C190.304 -527.425 212.362 -444.888 219.265 -360.418C234.635 -160.313 150.623 -67.062 199.071 -10.6071C273.946 76.5892 495.648 -121.97 714.177 -28.4744C874.578 40.0786 954.647 232.073 973.21 276.526C1045.51 449.903 998.791 555.734 1090.38 621.637C1157.29 669.893 1211.12 634.024 1332.09 685.564C1416.32 721.451 1474.98 774.924 1511.81 814.988"
        stroke="#002D74" stroke-miterlimit="10" />
      <path
        d="M146.51 -592.817C182.687 -516.172 204.745 -433.631 211.628 -349.158C226.998 -149.053 142.971 -55.7764 191.46 0.667724C266.37 87.9182 487.953 -110.608 706.616 -17.1707C866.992 51.3679 947.086 243.376 965.599 287.801C1037.92 461.193 991.179 567.009 1082.77 632.912C1149.7 681.182 1203.53 645.314 1324.48 696.839C1408.68 732.712 1467.35 786.184 1504.2 826.263"
        stroke="#002D74" stroke-miterlimit="10" />
      <path
        d="M138.95 -581.513C175.117 -504.864 197.175 -422.326 204.068 -337.854C219.438 -137.749 135.411 -44.4723 183.874 11.9573C258.76 99.1933 480.393 -99.3041 699.016 -5.85583C859.417 62.6972 939.486 254.691 958.049 299.145C1030.34 472.522 983.63 578.353 1075.22 644.255C1142.13 692.511 1195.96 656.643 1316.93 708.183C1401.14 744.095 1459.82 797.542 1496.65 837.606"
        stroke="#002D74" stroke-miterlimit="10" />
      <path
        d="M131.427 -570.154C167.623 -493.517 189.683 -410.973 196.545 -326.495C211.93 -126.416 127.903 -33.1393 176.391 23.3048C251.211 110.537 472.913 -88.0216 691.457 5.44835C851.848 73.9617 931.941 265.97 950.479 310.409C1022.8 483.801 976.06 589.617 1067.65 655.52C1134.58 703.79 1188.41 667.922 1309.36 719.447C1393.55 755.345 1452.23 808.793 1489.08 848.871"
        stroke="#002D74" stroke-miterlimit="10" />
      <path
        d="M123.776 -558.869C159.964 -482.228 182.023 -399.686 188.894 -315.21C204.279 -115.13 120.252 -21.8542 168.701 34.6007C243.611 121.851 465.219 -76.6608 683.857 16.7622C844.273 85.29 924.341 277.284 942.89 321.763C1015.2 495.115 968.471 600.971 1060.06 666.874C1126.99 715.144 1180.78 679.286 1301.76 730.826C1385.98 766.713 1444.66 820.161 1481.47 860.249"
        stroke="#002D74" stroke-miterlimit="10" />
      <path
        d="M116.204 -547.605C152.391 -470.964 174.451 -388.421 181.322 -303.946C196.707 -103.866 112.68 -10.5895 161.154 45.8798C236.039 133.116 457.647 -65.396 676.281 28.092C836.672 96.6053 916.765 288.614 935.289 333.078C1007.62 506.444 960.87 612.286 1052.46 678.189C1119.39 726.459 1173.21 690.616 1294.16 742.141C1378.36 778.014 1437.04 831.461 1473.87 871.565"
        stroke="#002D74" stroke-miterlimit="10" />
      <path
        d="M108.72 -536.257C144.897 -459.612 166.955 -377.072 173.838 -292.598C189.208 -92.4928 105.196 0.75813 153.645 57.2131C228.45 144.471 450.178 -54.0737 668.725 39.3313C829.126 107.884 909.22 299.893 927.758 344.332C1000.07 517.684 953.339 623.54 1044.93 689.443C1111.86 737.713 1165.65 701.855 1286.63 753.395C1370.85 789.282 1429.53 842.73 1466.34 882.819"
        stroke="#002D74" stroke-miterlimit="10" />
      <path
        d="M101.018 -524.936C137.205 -448.295 159.264 -365.753 166.136 -281.277C181.506 -81.1719 97.4936 12.079 145.967 68.5484C220.878 155.799 442.461 -42.7275 661.124 50.71C821.543 119.173 901.637 311.181 920.175 355.62C992.495 529.012 945.755 634.828 1037.35 700.731C1104.28 749.001 1158.11 713.133 1279.06 764.658C1363.26 800.531 1421.94 853.978 1458.77 894.082"
        stroke="#002D74" stroke-miterlimit="10" />
      <path
        d="M93.4989 -513.707C129.675 -437.062 151.734 -354.521 158.617 -270.048C173.987 -69.9428 89.9745 23.3082 138.423 79.7631C213.334 167.014 434.942 -31.4983 653.522 62.0258C813.923 130.579 894.017 322.587 912.555 367.026C984.85 540.404 938.135 646.235 1029.73 712.137C1096.66 760.407 1150.46 724.524 1271.44 776.064C1355.66 811.952 1414.34 865.399 1451.15 905.488"
        stroke="#002D74" stroke-miterlimit="10" />
      <path
        d="M86.015 -502.359C122.191 -425.714 144.25 -343.174 151.133 -258.7C166.503 -58.5951 82.4761 34.6812 130.964 91.1252C205.716 178.419 427.443 -20.1254 646.02 73.2291C806.396 141.768 886.489 333.776 905.027 378.215C977.348 551.607 930.608 657.423 1022.2 723.326C1089.13 771.596 1142.96 735.728 1263.91 787.253C1348.11 823.126 1406.8 876.613 1443.63 916.677"
        stroke="#002D74" stroke-miterlimit="10" />
      <path
        d="M78.2841 -490.988C114.451 -414.34 136.509 -331.801 143.402 -247.329C158.772 -47.2241 74.7452 46.0521 123.208 102.482C198.119 189.732 419.727 -8.77971 638.364 84.6433C798.838 153.07 878.932 345.078 897.47 389.517C969.79 562.909 923.05 668.726 1014.64 734.628C1081.57 782.899 1135.38 747.016 1256.35 798.556C1340.58 834.443 1399.24 887.915 1436.07 927.979"
        stroke="#002D74" stroke-miterlimit="10" />
      <path
        d="M70.7545 -479.798C106.944 -403.166 129.008 -320.632 135.887 -236.164C151.257 -36.0593 67.23 57.2169 115.718 113.661C190.614 200.937 412.197 2.41036 630.875 95.8225C791.251 164.361 871.344 356.37 889.882 400.809C962.203 574.2 915.488 680.031 1007.05 745.919C1073.99 794.19 1127.82 758.321 1248.77 809.847C1332.95 845.745 1391.66 899.206 1428.48 939.27"
        stroke="#002D74" stroke-miterlimit="10" />
      <path
        d="M63.2978 -468.441C99.4848 -391.8 121.544 -309.258 128.415 -224.782C143.8 -24.7022 59.7734 68.574 108.222 125.029C182.985 212.362 404.712 13.8181 623.277 107.133C783.693 175.661 863.787 367.669 882.31 412.133C954.645 585.5 907.905 691.316 999.482 757.244C1066.41 805.515 1120.22 769.632 1241.18 821.197C1325.41 857.084 1384.09 910.531 1420.89 950.62"
        stroke="#002D74" stroke-miterlimit="10" />
      <path
        d="M55.6118 -457.209C91.7988 -380.568 113.858 -298.025 120.729 -213.55C136.114 -13.4699 52.0873 79.8063 100.561 136.276C175.472 223.526 397.08 25.0142 615.717 118.437C776.108 186.951 856.245 378.883 874.751 423.438C947.06 596.79 900.331 702.646 991.897 768.534C1058.83 816.804 1112.64 780.961 1233.59 832.487C1317.82 868.374 1376.5 921.821 1413.31 961.91"
        stroke="#002D74" stroke-miterlimit="10" />
      <path
        d="M48.0515 -445.905C84.2277 -369.26 106.287 -286.719 113.169 -202.246C128.539 -2.14059 44.527 91.1103 92.9756 147.565C167.911 234.83 389.494 36.3038 608.132 129.727C768.548 198.255 848.641 390.263 867.165 434.727C939.5 608.094 892.746 713.936 984.336 779.838C1051.27 828.108 1105.06 792.251 1226.03 843.791C1310.26 879.678 1368.94 933.125 1405.75 973.214"
        stroke="#002D74" stroke-miterlimit="10" />
    </g>
  </mask>
  <g mask="url(#mask0_139_143)">
    <rect fill="#002D74" height="826" stroke="#002D74" width="1439" x="0.5" y="0.5" />
  </g>
</svg>
